<?xml version="1.0" encoding="UTF-8" standalone="no"?>
<!-- Created with Inkscape (http://www.inkscape.org/) -->

<svg
   version="1.1"
   id="svg1"
   width="548.79999"
   height="540.86328"
   viewBox="0 0 548.79997 540.86328"
   sodipodi:docname="full.svg"
   xml:space="preserve"
   inkscape:export-filename="icon.svg"
   inkscape:export-xdpi="96"
   inkscape:export-ydpi="96"
   xmlns:inkscape="http://www.inkscape.org/namespaces/inkscape"
   xmlns:sodipodi="http://sodipodi.sourceforge.net/DTD/sodipodi-0.dtd"
   xmlns="http://www.w3.org/2000/svg"
   xmlns:svg="http://www.w3.org/2000/svg"><defs
     id="defs1" /><sodipodi:namedview
     id="namedview1"
     pagecolor="#ffffff"
     bordercolor="#000000"
     borderopacity="0.25"
     inkscape:showpageshadow="2"
     inkscape:pageopacity="0.0"
     inkscape:pagecheckerboard="0"
     inkscape:deskcolor="#d1d1d1"><inkscape:page
       x="0"
       y="0"
       width="548.79999"
       height="540.86328"
       id="page1"
       margin="0"
       bleed="0" /></sodipodi:namedview><g
     inkscape:groupmode="layer"
     inkscape:label="Image"
     id="g1"
     transform="translate(-337.44001,-362.72001)"><path
       style="fill:#157a42;fill-opacity:1"
       d="m 538.56001,903.19512 c -9.90266,-2.04202 -18.44784,-9.20309 -22.26817,-18.66128 -1.96941,-4.87576 -1.86789,-3.2368 -1.98552,-32.05384 -0.0768,-18.80229 -0.002,-27.07443 0.26,-28.74346 0.45293,-2.88609 1.47929,-5.95788 2.90572,-8.69654 0.59585,-1.144 1.13261,-2.18862 1.1928,-2.32138 0.0602,-0.13276 -0.96306,0.33711 -2.27388,1.04416 -2.96434,1.59894 -6.19669,2.71313 -9.24749,3.18759 -1.71508,0.26673 -21.47804,0.33831 -73.70346,0.26694 -67.42572,-0.0921 -71.46477,-0.12903 -73.26033,-0.66906 -6.01782,-1.80992 -9.68916,-3.97683 -13.94013,-8.2278 -4.32052,-4.32051 -6.61547,-8.255 -8.23559,-14.11917 -0.51841,-1.87643 -0.56395,-4.26376 -0.56395,-29.56128 0,-25.29752 0.0455,-27.68485 0.56395,-29.56128 1.2675,-4.58781 3.75554,-9.3933 6.39895,-12.35914 l 1.56829,-1.75958 -1.56829,-1.75958 c -2.64341,-2.96584 -5.13145,-7.77133 -6.39895,-12.35914 -0.51841,-1.87643 -0.56395,-4.26376 -0.56395,-29.56128 0,-25.29752 0.0455,-27.68485 0.56395,-29.56128 1.28778,-4.66125 3.80129,-9.47882 6.50322,-12.46455 l 1.6465,-1.81944 -1.64279,-1.80769 c -2.69342,-2.96378 -5.21795,-7.80019 -6.50693,-12.46576 -0.51841,-1.87643 -0.56395,-4.26376 -0.56395,-29.56128 0,-25.29752 0.0455,-27.68485 0.56395,-29.56128 1.2675,-4.58781 3.75554,-9.3933 6.39895,-12.35914 l 1.56829,-1.75958 -1.56829,-1.75958 c -2.64341,-2.96584 -5.13145,-7.77133 -6.39895,-12.35914 -0.51841,-1.87643 -0.56395,-4.26376 -0.56395,-29.56128 0,-25.29752 0.0455,-27.68485 0.56395,-29.56128 1.25517,-4.5432 3.75408,-9.39167 6.33014,-12.28194 l 1.49948,-1.68238 -1.49532,-1.66952 c -2.56619,-2.86513 -5.07786,-7.73582 -6.3343,-12.2836 -0.51841,-1.87643 -0.56395,-4.26376 -0.56395,-29.56128 0,-25.29752 0.0455,-27.68485 0.56395,-29.56128 1.62012,-5.86417 3.91507,-9.79866 8.23559,-14.11917 4.32052,-4.32052 8.255,-6.61547 14.11917,-8.2356 1.92178,-0.53093 6.28461,-0.56395 74.52129,-0.56395 68.23667,0 72.5995,0.033 74.52128,0.56395 4.5432,1.25518 9.39166,3.75409 12.28194,6.33015 l 1.68238,1.49948 1.66952,-1.49533 c 2.86513,-2.56618 7.73582,-5.07786 12.2836,-6.3343 1.92177,-0.53093 6.28461,-0.56395 74.52128,-0.56395 68.23667,0 72.59951,0.033 74.52128,0.56395 4.5432,1.25518 9.39167,3.75409 12.28194,6.33015 l 1.68238,1.49948 1.66952,-1.49533 c 2.86513,-2.56618 7.73582,-5.07786 12.2836,-6.3343 1.92177,-0.53093 6.28461,-0.56395 74.52128,-0.56395 68.23667,0 72.59951,0.033 74.52128,0.56395 5.86418,1.62013 9.79866,3.91508 14.11918,8.2356 4.32052,4.32051 6.61547,8.255 8.23559,14.11917 0.51841,1.87643 0.56395,4.26376 0.56395,29.56128 0,25.29752 -0.0455,27.68485 -0.56395,29.56128 -1.25517,4.5432 -3.75408,9.39167 -6.33015,12.28194 l -1.49947,1.68238 1.49532,1.66952 c 2.56619,2.86513 5.07786,7.73582 6.3343,12.2836 0.51841,1.87643 0.56395,4.26376 0.56395,29.56128 0,25.29752 -0.0455,27.68485 -0.56395,29.56128 -1.2675,4.58781 -3.75554,9.3933 -6.39895,12.35914 l -1.56829,1.75958 1.56829,1.75958 c 2.64341,2.96584 5.13145,7.77133 6.39895,12.35914 0.51841,1.87643 0.56395,4.26376 0.56395,29.56128 0,25.29752 -0.0455,27.68485 -0.56395,29.56128 -1.28779,4.66125 -3.8013,9.47882 -6.50322,12.46455 l -1.6465,1.81944 1.64279,1.80769 c 2.69342,2.96378 5.21795,7.80019 6.50693,12.46576 0.51841,1.87643 0.56395,4.26376 0.56395,29.56128 0,25.29752 -0.0455,27.68485 -0.56395,29.56128 -1.62012,5.86417 -3.91507,9.79866 -8.23559,14.11917 -4.32052,4.32052 -8.255,6.61547 -14.11918,8.2356 -1.92177,0.53093 -6.28461,0.56395 -74.52128,0.56395 -68.23667,0 -72.59951,-0.033 -74.52128,-0.56395 -4.48488,-1.23906 -9.25432,-3.68243 -12.25193,-6.27662 l -1.70679,-1.47709 1.76966,1.97564 c 2.76267,3.08422 5.18674,7.64578 6.61166,12.4417 0.51542,1.73478 0.57399,4.20001 0.67237,28.30032 0.0768,18.80229 0.002,27.07443 -0.26001,28.74346 -0.71094,4.53019 -2.87042,9.50935 -5.81881,13.41654 l -1.50922,2 1.50922,2 c 2.94839,3.90719 5.10787,8.88635 5.81881,13.41654 0.26193,1.66903 0.33676,9.94117 0.26001,28.74346 -0.11764,28.81704 -0.0161,27.17808 -1.98552,32.05384 -1.63763,4.05437 -3.45397,6.73287 -6.90771,10.18661 -4.25095,4.25095 -7.92196,6.41768 -13.94014,8.22785 -1.79787,0.54077 -5.78201,0.57439 -73.90032,0.62366 -59.09611,0.0427 -72.37278,-0.0248 -74.08,-0.37684 z"
       id="path4" /><path
       style="fill:#ffffff;fill-opacity:1"
       d="m 541.3711,798.85273 c -2.43051,-0.75002 -5.32761,-2.94175 -6.87244,-5.19917 -2.46078,-3.59589 -2.36475,-2.31065 -2.26629,-30.32875 l 0.0876,-24.93888 1.06472,-2.16245 c 1.3548,-2.75159 3.60746,-5.00415 6.35907,-6.35876 L 541.90655,728.8 h 70.57346 70.57346 l 2.16275,1.06472 c 2.7518,1.3547 5.00437,3.60727 6.35907,6.35907 l 1.06472,2.16275 V 764 789.61346 l -1.06472,2.16275 c -1.35469,2.75177 -3.60726,5.00435 -6.35902,6.35907 l -2.16271,1.06472 -70.08678,0.0592 c -60.55045,0.0511 -70.29208,-0.004 -71.59568,-0.40645 z m -177.92,-86.72 c -2.43051,-0.75002 -5.32761,-2.94175 -6.87244,-5.19917 -2.46079,-3.59589 -2.36475,-2.31065 -2.26629,-30.32875 l 0.0876,-24.93888 1.06472,-2.16245 c 1.35479,-2.75159 3.60746,-5.00415 6.35906,-6.35876 l 2.16276,-1.06472 h 70.57346 70.57346 l 2.16275,1.06472 c 2.75179,1.3547 5.00436,3.60727 6.35907,6.35907 l 1.06472,2.16275 V 677.28 702.89346 l -1.06472,2.16275 c -1.35469,2.75177 -3.60726,5.00435 -6.35903,6.35907 l -2.1627,1.06472 -70.08678,0.0592 c -60.55045,0.0511 -70.29208,-0.004 -71.59568,-0.40645 z m 177.92,-174.08 c -2.43051,-0.75002 -5.32761,-2.94175 -6.87244,-5.19917 -2.46078,-3.59589 -2.36475,-2.31065 -2.26629,-30.32875 l 0.0876,-24.93888 1.06472,-2.16245 c 1.3548,-2.75159 3.60746,-5.00415 6.35907,-6.35876 L 541.90655,468 h 70.57346 70.57346 l 2.16275,1.06472 c 2.7518,1.3547 5.00437,3.60727 6.35907,6.35907 l 1.06472,2.16275 V 503.2 528.81346 l -1.06472,2.16275 c -1.35469,2.75177 -3.60726,5.00435 -6.35902,6.35907 l -2.16271,1.06472 -70.08678,0.0592 c -60.55045,0.0511 -70.29208,-0.004 -71.59568,-0.40645 z m 176.32001,0 c -2.43052,-0.75002 -5.32762,-2.94175 -6.87245,-5.19917 -2.46078,-3.59589 -2.36474,-2.31065 -2.26629,-30.32875 l 0.0876,-24.93888 1.06472,-2.16245 c 1.3548,-2.75159 3.60746,-5.00415 6.35907,-6.35876 L 718.22655,468 h 70.57346 70.57346 l 2.16275,1.06472 c 2.7518,1.3547 5.00437,3.60727 6.35907,6.35907 l 1.06472,2.16275 V 503.2 528.81346 l -1.06472,2.16275 c -1.35469,2.75177 -3.60726,5.00435 -6.35902,6.35907 l -2.16271,1.06472 -70.08677,0.0592 c -60.55046,0.0511 -70.29209,-0.004 -71.59568,-0.40645 z"
       id="path5" /><path
       style="fill:#60b975;fill-opacity:1"
       d="m 541.12001,886.71074 c -3.91181,-1.39838 -7.20374,-4.77698 -8.41876,-8.64038 -0.51216,-1.6285 -0.54956,-3.75971 -0.4689,-26.72 l 0.0877,-24.95036 1.05736,-2.16212 c 1.34777,-2.75597 3.62455,-5.03275 6.38052,-6.38052 L 541.92001,816.8 h 70.56 70.56 l 2.16212,1.05736 c 2.75597,1.34777 5.03275,3.62455 6.38052,6.38052 l 1.05736,2.16212 v 25.6 25.6 l -1.05736,2.16212 c -1.34777,2.75597 -3.62455,5.03275 -6.38052,6.38052 l -2.16212,1.05736 -70.08,0.0699 c -68.95949,0.0688 -70.10814,0.0599 -71.84,-0.55921 z m -177.92,-87.04 c -3.91181,-1.39838 -7.20374,-4.77698 -8.41877,-8.64038 -0.51215,-1.6285 -0.54955,-3.75971 -0.46889,-26.72 l 0.0877,-24.95036 1.05735,-2.16212 c 1.34777,-2.75597 3.62456,-5.03275 6.38053,-6.38052 l 2.16212,-1.05736 h 70.56 70.56 l 2.16212,1.05736 c 2.75596,1.34777 5.03275,3.62455 6.38052,6.38052 l 1.05736,2.16212 v 25.6 25.6 l -1.05736,2.16212 c -1.34777,2.75597 -3.62456,5.03275 -6.38052,6.38052 l -2.16212,1.05736 -70.08,0.07 c -68.95949,0.0688 -70.10815,0.0599 -71.84,-0.55921 z m 354.24,-87.68 c -3.9118,-1.39838 -7.20374,-4.77698 -8.41876,-8.64038 -0.51216,-1.6285 -0.54955,-3.75971 -0.46889,-26.72 l 0.0876,-24.95036 1.05736,-2.16212 c 1.34777,-2.75597 3.62455,-5.03275 6.38052,-6.38052 l 2.16212,-1.05736 h 70.56 70.56 l 2.16212,1.05736 c 2.75597,1.34777 5.03275,3.62455 6.38052,6.38052 l 1.05736,2.16212 v 25.6 25.6 l -1.05736,2.16212 c -1.34777,2.75597 -3.62455,5.03275 -6.38052,6.38052 l -2.16212,1.05736 -70.08,0.0699 c -68.95948,0.0688 -70.10814,0.0599 -71.84,-0.55921 z m -354.24,-87.36 c -3.91181,-1.39838 -7.20374,-4.77698 -8.41877,-8.64038 -0.51215,-1.6285 -0.54955,-3.75971 -0.46889,-26.72 l 0.0877,-24.95036 1.05735,-2.16212 c 1.34777,-2.75597 3.62456,-5.03275 6.38053,-6.38052 l 2.16212,-1.05736 h 70.56 70.56 l 2.16212,1.05736 c 2.75596,1.34777 5.03275,3.62455 6.38052,6.38052 l 1.05736,2.16212 v 25.6 25.6 l -1.05736,2.16212 c -1.34777,2.75597 -3.62456,5.03275 -6.38052,6.38052 l -2.16212,1.05736 -70.08,0.0699 c -68.95949,0.0688 -70.10815,0.0599 -71.84,-0.55921 z m 177.92,0 c -3.91181,-1.39838 -7.20374,-4.77698 -8.41876,-8.64038 -0.51216,-1.6285 -0.54956,-3.75971 -0.4689,-26.72 l 0.0877,-24.95036 1.05736,-2.16212 c 1.34777,-2.75597 3.62455,-5.03275 6.38052,-6.38052 l 2.16212,-1.05736 h 70.56 70.56 l 2.16212,1.05736 c 2.75597,1.34777 5.03275,3.62455 6.38052,6.38052 l 1.05736,2.16212 v 25.6 25.6 l -1.05736,2.16212 c -1.34777,2.75597 -3.62455,5.03275 -6.38052,6.38052 l -2.16212,1.05736 -70.08,0.0699 c -68.95949,0.0688 -70.10814,0.0599 -71.84,-0.55921 z m 176.32,0 c -3.9118,-1.39838 -7.20374,-4.77698 -8.41876,-8.64038 -0.51216,-1.6285 -0.54955,-3.75971 -0.46889,-26.72 l 0.0876,-24.95036 1.05736,-2.16212 c 1.34777,-2.75597 3.62455,-5.03275 6.38052,-6.38052 l 2.16212,-1.05736 h 70.56 70.56 l 2.16212,1.05736 c 2.75597,1.34777 5.03275,3.62455 6.38052,6.38052 l 1.05736,2.16212 v 25.6 25.6 l -1.05736,2.16212 c -1.34777,2.75597 -3.62455,5.03275 -6.38052,6.38052 l -2.16212,1.05736 -70.08,0.0699 c -68.95948,0.0688 -70.10814,0.0599 -71.84,-0.55921 z m -354.24,-173.12 c -3.91181,-1.39838 -7.20374,-4.77698 -8.41877,-8.64038 -0.51215,-1.6285 -0.54955,-3.75971 -0.46889,-26.72 l 0.0877,-24.95036 1.05735,-2.16212 c 1.34777,-2.75597 3.62456,-5.03275 6.38053,-6.38052 L 364.00001,381.6 h 70.56 70.56 l 2.16212,1.05736 c 2.75596,1.34777 5.03275,3.62455 6.38052,6.38052 l 1.05736,2.16212 v 25.6 25.6 l -1.05736,2.16212 c -1.34777,2.75597 -3.62456,5.03275 -6.38052,6.38052 L 505.12001,452 l -70.08,0.07 c -68.95949,0.0688 -70.10815,0.0599 -71.84,-0.55921 z m 177.92,0 c -3.91181,-1.39838 -7.20374,-4.77698 -8.41876,-8.64038 -0.51216,-1.6285 -0.54956,-3.75971 -0.4689,-26.72 l 0.0877,-24.95036 1.05736,-2.16212 c 1.34777,-2.75597 3.62455,-5.03275 6.38052,-6.38052 L 541.92001,381.6 h 70.56 70.56 l 2.16212,1.05736 c 2.75597,1.34777 5.03275,3.62455 6.38052,6.38052 l 1.05736,2.16212 v 25.6 25.6 l -1.05736,2.16212 c -1.34777,2.75597 -3.62455,5.03275 -6.38052,6.38052 L 683.04001,452 l -70.08,0.07 c -68.95949,0.0688 -70.10814,0.0599 -71.84,-0.55921 z"
       id="path6" /><path
       style="fill:#349c4d;fill-opacity:1"
       d="m 541.12001,711.99074 c -3.91181,-1.39838 -7.20374,-4.77698 -8.41876,-8.64038 -0.51216,-1.6285 -0.54956,-3.75971 -0.4689,-26.72 l 0.0877,-24.95036 1.05736,-2.16212 c 1.34777,-2.75597 3.62455,-5.03275 6.38052,-6.38052 l 2.16212,-1.05736 h 70.56 70.56 l 2.16212,1.05736 c 2.75597,1.34777 5.03275,3.62455 6.38052,6.38052 l 1.05736,2.16212 v 25.6 25.6 l -1.05736,2.16212 c -1.34777,2.75597 -3.62455,5.03275 -6.38052,6.38052 l -2.16212,1.05736 -70.08,0.0699 c -68.95949,0.0688 -70.10814,0.0599 -71.84,-0.55921 z m -177.92,-174.08 c -3.91181,-1.39838 -7.20374,-4.77698 -8.41877,-8.64038 -0.51215,-1.6285 -0.54955,-3.75971 -0.46889,-26.72 l 0.0877,-24.95036 1.05735,-2.16212 c 1.34777,-2.75597 3.62456,-5.03275 6.38053,-6.38052 L 364.00001,468 h 70.56 70.56 l 2.16212,1.05736 c 2.75596,1.34777 5.03275,3.62455 6.38052,6.38052 l 1.05736,2.16212 v 25.6 25.6 l -1.05736,2.16212 c -1.34777,2.75597 -3.62456,5.03275 -6.38052,6.38052 l -2.16212,1.05736 -70.08,0.07 c -68.95949,0.0688 -70.10815,0.0599 -71.84,-0.55921 z m 354.24,-86.4 c -3.9118,-1.39838 -7.20374,-4.77698 -8.41876,-8.64038 -0.51216,-1.6285 -0.54955,-3.75971 -0.46889,-26.72 l 0.0876,-24.95036 1.05736,-2.16212 c 1.34777,-2.75597 3.62455,-5.03275 6.38052,-6.38052 L 718.24001,381.6 h 70.56 70.56 l 2.16212,1.05736 c 2.75597,1.34777 5.03275,3.62455 6.38052,6.38052 l 1.05736,2.16212 v 25.6 25.6 l -1.05736,2.16212 c -1.34777,2.75597 -3.62455,5.03275 -6.38052,6.38052 L 859.36001,452 l -70.08,0.07 c -68.95948,0.0688 -70.10814,0.0599 -71.84,-0.55921 z"
       id="path7" /><path
       style="fill:#ffffff;fill-opacity:1"
       d="m 475.84001,784.66284 c -6.64021,-1.41124 -11.41895,-3.19322 -16.0163,-5.97244 -3.94798,-2.38666 -6.28941,-4.28584 -10.1164,-8.20563 -6.90229,-7.06965 -11.00327,-14.93436 -12.8927,-24.72519 -0.63474,-3.28911 -0.65446,-4.44296 -0.64987,-38.01582 0.005,-38.70261 -0.11132,-36.61146 2.30324,-41.30727 1.76906,-3.44046 5.80472,-7.54655 9.08804,-9.24665 6.26275,-3.24283 14.46523,-3.24283 20.72797,0 3.27421,1.69538 7.32323,5.81028 9.06272,9.21016 0.72038,1.408 1.4977,3.136 1.72738,3.84 0.32764,1.00426 0.45512,8.38022 0.59176,34.24 l 0.17416,32.96 0.75772,1.32228 c 0.43764,0.76371 1.31629,1.64236 2.08,2.08 l 1.32228,0.75772 h 43.52 43.52 l 1.32228,-0.75772 c 0.76371,-0.43764 1.64235,-1.31629 2.08,-2.08 l 0.75772,-1.32228 0.17049,-107.52 0.1705,-107.52 0.68433,-2.74858 c 2.44806,-9.83255 6.19741,-16.62994 13.01417,-23.59403 4.37251,-4.46703 8.84559,-7.69765 13.97123,-10.09053 3.64725,-1.70271 6.07587,-2.47431 11.17972,-3.55192 l 3.85975,-0.81494 24.7149,0.005 c 27.70234,0.005 26.82753,-0.0591 31.37792,2.30832 4.85983,2.52836 8.94359,7.31702 10.68147,12.52518 0.77286,2.31617 0.86816,3.07598 0.86816,6.92177 0,3.84579 -0.0953,4.6056 -0.86816,6.92177 -1.73788,5.20816 -5.82164,9.99682 -10.68147,12.52518 -4.66213,2.4255 -3.97595,2.36531 -28.74301,2.52131 -25.18796,0.15864 -24.17545,0.0554 -25.6826,2.6192 l -0.8774,1.49254 -0.16174,107.52 -0.16173,107.52 -1.02071,3.86746 c -2.48559,9.41798 -5.99686,15.63672 -12.67418,22.44701 -6.79828,6.93364 -13.43469,10.75896 -23.07418,13.30024 l -3.86746,1.01959 -49.76,0.0633 c -46.90596,0.0597 -49.91601,0.0302 -52.48,-0.51477 z"
       id="path8" /><path
       style="fill:#157a42;fill-opacity:1"
       d="m 478.24001,769.3922 c -7.27484,-1.56471 -12.92865,-4.76178 -17.98324,-10.16902 -3.72615,-3.98612 -6.15334,-8.3928 -7.85612,-14.26318 -0.69229,-2.3867 -0.69671,-2.58753 -0.79682,-36.23623 -0.0988,-33.20835 -0.0889,-33.85931 0.53372,-35.07975 2.40071,-4.70579 9.15927,-4.71545 11.55649,-0.0165 0.60807,1.19192 0.62613,2.08978 0.63151,31.39975 0.003,17.5411 0.1376,31.42642 0.32097,33.16734 0.71543,6.79227 3.97828,12.18626 9.40751,15.55205 2.84203,1.76189 5.41665,2.62923 9.03532,3.04381 3.86711,0.44304 85.02245,0.4398 88.89261,-0.004 6.69857,-0.76737 12.03755,-4.03403 15.36469,-9.40091 1.79537,-2.89604 2.65853,-5.50601 3.05008,-9.2226 0.1961,-1.86147 0.31425,-41.77343 0.31773,-107.33523 0.006,-112.30545 -0.0831,-106.12736 1.60297,-111.14815 0.83319,-2.48103 2.86541,-6.59444 4.25908,-8.62077 1.76787,-2.57043 6.03943,-6.73581 8.77215,-8.55409 3.3891,-2.25503 7.05119,-3.80257 11.29135,-4.77152 l 3.36,-0.76782 22.97275,-0.003 c 22.30877,-0.003 23.00884,0.0155 24.22146,0.63415 2.5766,1.31448 3.998,4.4937 3.25354,7.27716 -0.52464,1.96156 -1.67154,3.43844 -3.34629,4.30905 -1.33071,0.69177 -1.52608,0.69896 -24.38146,0.89741 -22.89551,0.1988 -23.05305,0.20462 -25.12,0.92832 -6.58415,2.30528 -11.18585,7.23516 -13.321,14.27101 -0.55704,1.8356 -0.59042,6.65333 -0.75943,109.6 l -0.17678,107.68 -0.69979,2.4 c -1.93975,6.65251 -4.19405,10.50932 -8.88387,15.19914 -4.69059,4.69059 -8.55332,6.94806 -15.19913,8.88273 l -2.4,0.69867 -47.84,0.0667 c -41.57191,0.058 -48.13349,0.004 -50.08,-0.41507 z"
       id="path9" /></g></svg>
