<?xml version="1.0" encoding="UTF-8" standalone="no"?>
<!-- Created with Inkscape (http://www.inkscape.org/) -->

<svg
   version="1.1"
   id="svg1"
   width="2315.0022"
   height="857.25641"
   viewBox="0 0 2315.0022 857.25641"
   sodipodi:docname="title.svg"
   xml:space="preserve"
   inkscape:export-filename="1.svg"
   inkscape:export-xdpi="96"
   inkscape:export-ydpi="96"
   xmlns:inkscape="http://www.inkscape.org/namespaces/inkscape"
   xmlns:sodipodi="http://sodipodi.sourceforge.net/DTD/sodipodi-0.dtd"
   xmlns="http://www.w3.org/2000/svg"
   xmlns:svg="http://www.w3.org/2000/svg"><defs
     id="defs1" /><sodipodi:namedview
     id="namedview1"
     pagecolor="#ffffff"
     bordercolor="#000000"
     borderopacity="0.25"
     inkscape:showpageshadow="2"
     inkscape:pageopacity="0.0"
     inkscape:pagecheckerboard="0"
     inkscape:deskcolor="#d1d1d1"><inkscape:page
       x="0"
       y="0"
       width="2315.0022"
       height="857.25641"
       id="page2"
       margin="0"
       bleed="0" /></sodipodi:namedview><g
     inkscape:groupmode="layer"
     inkscape:label="Image"
     id="g1"
     transform="translate(-796.99774,-128)"><rect
       style="fill:#ffffff;fill-opacity:1;stroke-width:0.957257"
       id="rect3"
       width="2315.0022"
       height="857.25641"
       x="796.99774"
       y="128"
       ry="0" /><path
       style="fill:#157a42;fill-opacity:1"
       d="m 1514.8849,728.31199 c -52.9878,-3.01155 -97.8249,-28.27532 -126.6325,-71.35199 -18.7019,-27.96536 -28.6386,-58.91015 -31.4947,-98.08 -0.5129,-7.03413 -0.5134,-27.84236 -9e-4,-35.04 1.4972,-21.02785 4.7883,-38.52028 10.4457,-55.52 3.8154,-11.46469 8.9164,-22.94779 14.5703,-32.8 3.0204,-5.26319 10.134,-15.91543 13.5281,-20.25767 19.737,-25.25022 45.6076,-43.44119 75.7845,-53.28794 17.4752,-5.70219 34.0602,-8.18684 54.5146,-8.16702 10.0597,0.01 15.0279,0.30371 23.68,1.40112 43.6717,5.5392 81.5835,27.56424 107.6701,62.55151 19.1814,25.72608 30.9264,55.81132 35.3537,90.56 2.6283,20.62881 2.625,45.78724 -0.01,65.92 -3.1832,24.33469 -9.6118,45.59589 -19.6684,65.04887 -16.8526,32.59904 -40.8355,56.75933 -71.668,72.19798 -18.6643,9.34569 -38.0462,14.61173 -60.768,16.51054 -5.665,0.47341 -19.4882,0.64526 -25.306,0.3146 z m 25.3471,-58.51526 c 28.1371,-4.19321 50.7649,-18.54824 66.6406,-42.27673 11.0064,-16.45073 17.767,-35.21708 20.7891,-57.70733 1.4008,-10.42478 1.619,-14.34278 1.6067,-28.85267 -0.012,-14.3693 -0.2756,-18.74433 -1.7834,-29.6 -4.9312,-35.50333 -21.1235,-65.07155 -44.966,-82.11078 -12.8962,-9.2163 -26.7159,-14.61389 -43.479,-16.98163 -5.9301,-0.83762 -21.2508,-0.83914 -27.2,-0.003 -18.1559,2.55269 -34.0834,9.29562 -47.84,20.25318 -3.7645,2.99854 -11.5375,10.82524 -14.6354,14.73642 -14.0647,17.75721 -22.6002,38.61831 -26.295,64.26551 -1.4964,10.38692 -1.7744,15.01423 -1.7786,29.6 0,14.14059 0.1732,17.52495 1.4332,27.36 3.3319,26.00798 12.1943,48.31661 26.2512,66.08 3.4965,4.41832 12.1204,12.98773 16.1446,16.04247 14.0012,10.62815 28.6704,16.79925 45.5288,19.15324 6.3052,0.88041 6.691,0.89905 16.3912,0.79235 6.8265,-0.0751 9.785,-0.24359 13.192,-0.75133 z M 997.44001,541.27962 V 359.6479 l 69.19999,0.12813 c 71.715,0.13279 70.9611,0.11899 83.236,1.5241 17.2828,1.97836 32.6996,5.74897 47.841,11.70087 4.9804,1.95771 16.8887,7.8301 21.6163,10.65966 11.3302,6.78141 20.4202,13.84266 29.4718,22.89428 28.6353,28.63528 45.0549,68.42406 48.1358,116.64506 1.2965,20.29216 0.3435,40.98997 -2.7333,59.36 -5.5214,32.96638 -17.6624,60.50818 -36.8876,83.68 -4.0109,4.83422 -13.2965,14.11458 -18.12,18.10976 -25.1368,20.82019 -55.1938,32.9826 -91.2,36.90357 -13.0328,1.41924 -11.9276,1.39873 -82.48,1.53068 l -68.07999,0.12733 z M 1129.12,667.51142 c 30.2212,-2.19897 52.7569,-11.08294 70.1804,-27.66625 13.3187,-12.67647 22.8481,-30.29005 28.2216,-52.16271 2.1295,-8.66848 3.5047,-17.33797 4.5434,-28.64246 0.5457,-5.93995 0.543,-30.09745 0,-36.16 -2.6691,-29.57629 -10.1547,-52.10079 -23.0409,-69.3313 -14.9275,-19.95997 -35.902,-32.13989 -63.2604,-36.73531 -11.2151,-1.88382 -11.1607,-1.88159 -49.04,-2.00928 l -34.96,-0.11785 V 541.26313 667.84 l 31.44,-10e-4 c 18.1847,-7.5e-4 33.3288,-0.13874 35.92,-0.32728 z m 636,-126.23142 v -181.6 h 32.16 32.16 v 153.6 153.6 h 84.16 84.16 v 28 28 h -116.32 -116.32 z m 297.6,0 v -181.6 h 32.16 32.16 v 181.6 181.6 h -32.16 -32.16 z m 147.84,0 v -181.6 h 34.6878 34.6877 l 64.0937,101.84 c 72.1928,114.70889 68.7437,109.19747 74.7804,119.49369 4.8384,8.25224 19.097,33.22298 24.2456,42.4606 3.0913,5.54654 3.1881,5.67805 3.2975,4.48 0.062,-0.67886 -0.052,-7.35429 -0.2528,-14.83429 -0.8723,-32.47028 -0.9701,-47.27543 -0.9749,-147.6 l -0.01,-105.84 h 32.16 32.16 v 181.60142 181.60142 l -34.7855,-0.0814 -34.7856,-0.0814 -56.7458,-89.92 c -63.0091,-99.84466 -77.5192,-123.55177 -105.703,-172.70073 -2.3242,-4.05315 -4.0303,-6.71577 -4.1007,-6.4 -0.066,0.2974 0.049,5.43673 0.2564,11.42073 0.2074,5.984 0.5295,15.416 0.7158,20.96 0.209,6.21682 0.3964,53.52544 0.4891,123.44 l 0.1502,113.36 h -32.1854 -32.1855 z m 356.2348,181.2 c 0.079,-0.22 29.2181,-81.93681 64.7542,-181.5929 l 64.611,-181.1929 40.3566,-0.007 40.3565,-0.007 0.5098,1.36 c 0.8523,2.27366 128.5371,361.59898 128.5371,361.72377 0,0.0639 -15.892,0.11623 -35.3156,0.11623 h -35.3156 l -21.2867,-63.76 c -40.2772,-120.64237 -44.6234,-133.99651 -61.6275,-189.36 -3.1623,-10.296 -7.72,-25.344 -10.1282,-33.44 -5.8451,-19.65037 -5.5213,-18.62891 -5.7316,-18.08 -0.1012,0.264 -1.9231,6.312 -4.0488,13.44 -12.7601,42.78841 -24.66,80.05195 -39.3946,123.36 -9.4353,27.73247 -13.3298,39.12884 -42.6207,124.72 l -14.7565,43.12 h -34.5213 c -27.4801,0 -34.4921,-0.0816 -34.3781,-0.4 z"
       id="path1"
       sodipodi:nodetypes="cssssssssssscssscccsssssscssscsssssccccssssssssssscccssscsssccccccccccccccccccccccccccccccccsssscccccccccssssssccccsscccssscssssssscsss" /><path
       style="fill:#ffffff;fill-opacity:1"
       d="m 2300.32,975.35359 c -23.7547,-0.97119 -42.2966,-4.55345 -58.08,-11.22094 -9.5702,-4.04283 -23.7428,-11.61707 -31.8212,-17.00615 -14.7105,-9.81337 -38.1448,-30.58761 -51.7169,-45.8465 -14.6918,-16.51768 -27.3153,-32.88296 -62.6962,-81.28 -36.3316,-49.69746 -48.3432,-64.89851 -69.9088,-88.47198 -6.3583,-6.95028 -23.2333,-23.92696 -28.9859,-29.16064 -15.6509,-14.23882 -31.7641,-26.44349 -53.911,-40.83387 -17.2383,-11.20097 -27.6632,-17.33725 -38.72,-22.79148 -19.6188,-9.67779 -42.9871,-18.00831 -65.6,-23.38566 -3.872,-0.92077 -7.58,-1.80617 -8.24,-1.96758 l -1.2,-0.29346 V 587.82767 562.56 h 0.6686 c 1.3049,0 16.5594,3.20083 23.633,4.95887 37.5784,9.33961 70.3554,22.92199 101.0641,41.87973 51.2155,31.61753 80.9173,56.59068 118.8562,99.93408 18.169,20.75721 29.5572,35.44528 64.0946,82.66732 40.798,55.78195 50.3791,67.86143 67.0219,84.49889 13.4553,13.451 23.3266,21.78082 34.5816,29.18142 17.8042,11.70692 32.551,16.97963 53.6,19.16462 5.9388,0.61646 23.3317,0.51945 28.48,-0.15885 7.7827,-1.02538 14.7046,-2.93046 21.4661,-5.90804 11.904,-5.24213 29.4055,-18.97412 47.0217,-36.89421 12.142,-12.35137 20.5942,-23.28514 36.9401,-47.78567 14.921,-22.36471 22.801,-35.21514 41.6117,-67.85816 23.5039,-40.78763 37.2836,-61.62138 60.109,-90.88 21.7263,-27.84984 39.8649,-46.07785 63.6202,-63.93375 35.8366,-26.93699 90.3023,-50.7251 150.9912,-65.94598 39.369,-9.87381 76.7466,-15.57957 117.6,-17.95184 21.5369,-1.2506 57.8847,-1.44489 65.6,-0.35065 13.5875,1.92707 21.6699,7.6446 24.6849,17.46222 0.9528,3.10254 1.0351,8.67926 0.1748,11.83689 -1.8255,6.70056 -7.1279,12.52758 -14.0435,15.43323 -7.2333,3.03912 -15.2192,3.85218 -41.6962,4.24523 -46.8374,0.6953 -85.3041,5.01362 -124.32,13.9563 -43.3234,9.92999 -78.3527,22.09252 -111.04,38.55423 -25.416,12.79981 -43.6479,25.74422 -62.8372,44.61356 -13.2543,13.03329 -22.6424,24.05703 -38.2899,44.96056 -16.5158,22.06358 -28.0824,40.12104 -49.9113,77.92 -17.5336,30.36118 -27.4199,46.44863 -41.2971,67.2 -23.2244,34.72891 -37.6353,51.61848 -61.5845,72.17692 -10.1544,8.71677 -21.9493,17.86035 -28.428,22.03782 -13.951,8.99564 -29.2173,14.29855 -47.892,16.63583 -8.8557,1.10836 -19.9598,1.53715 -29.6,1.14302 z M 1528.64,621.88265 c -1.848,-0.0529 -8.904,-0.25168 -15.68,-0.44182 -27.3185,-0.76659 -45.86,-1.753 -57.6,-3.06434 -26.9883,-3.01456 -69.6453,-13.54749 -106.4,-26.27242 -17.0256,-5.89448 -27.2457,-10.07538 -53.44,-21.8614 -48.1072,-21.64573 -82.1461,-35.11721 -123.68,-48.94859 -33.3652,-11.1111 -75.3667,-19.73621 -113.76,-23.36093 -22.2741,-2.1029 -41.3279,-2.87971 -71.03999,-2.89626 -20.66177,-0.0115 -25.95379,-0.20471 -31.51379,-1.1505 -11.78177,-2.00415 -19.45749,-8.19619 -21.97381,-17.72639 -0.7529,-2.85147 -0.75362,-7.81524 -0.002,-10.76871 2.49551,-9.80047 10.91491,-16.30877 23.88917,-18.46664 10.6255,-1.76723 34.17459,-2.18925 64.00002,-1.14696 41.2758,1.44244 72.5645,5.24683 112,13.61804 21.6328,4.59211 35.8796,8.43692 55.52,14.9832 44.4066,14.80103 78.6277,28.32254 128,50.57552 21.7055,9.78304 30.5936,13.49733 43.52,18.18663 21.5781,7.82789 48.3322,15.51325 72.48,20.82057 19.807,4.35327 31.7408,5.78485 57.6,6.9097 44.7613,1.94708 87.9162,2.07022 109.6,0.31273 5.1691,-0.41895 15.9758,-1.68833 22.6104,-2.65585 l 5.0103,-0.73066 -0.1596,1.14121 c -1.7898,12.79607 -4.378,23.4712 -8.1514,33.62122 -1.5079,4.05584 -7.0057,15.77721 -8.0045,17.0656 -0.4918,0.63428 -4.2129,1.06163 -15.9452,1.83122 -5.1034,0.33476 -58.2371,0.67307 -66.88,0.42583 z m 156.16,-11.47887 c 0,-0.0859 0.6405,-2.42592 1.4233,-5.2 2.5633,-9.08397 4.3829,-17.7242 5.7459,-27.28378 0.9046,-6.345 1.7908,-14.65983 1.7908,-16.80292 0,-0.94238 0.1388,-1.43708 0.4032,-1.43708 0.2218,0 3.0658,-0.21301 6.32,-0.47335 16.2768,-1.30215 31.4224,-1.9852 50.7968,-2.29089 l 13.84,-0.21836 v 25.0113 25.0113 l -10.96,0.004 c -19.0435,0.007 -41.1614,1.14294 -62.48,3.20764 -7.2914,0.70617 -6.88,0.67795 -6.88,0.47186 z"
       id="path3" /><path
       style="display:inline;fill:#60b975;fill-opacity:1"
       d="m 2305.28,962.34467 c -19.1827,-0.52059 -38.1792,-3.02629 -48.48,-6.39465 -5.312,-1.73703 -25.3858,-11.50472 -33.44,-16.27154 -7.827,-4.63237 -13.3379,-8.72874 -20.64,-15.34226 -1.584,-1.43462 -4.68,-4.11173 -6.88,-5.94912 -23.6349,-19.73934 -37.042,-35.67229 -83.1935,-98.8671 -40.9832,-56.11782 -48.2413,-65.54631 -66.2649,-86.08 -30.9217,-35.22817 -53.7412,-55.65816 -86.813,-77.72283 -12.1126,-8.08119 -33.5151,-21.52099 -39.6074,-24.87158 -16.4243,-9.03293 -42.3395,-19.29006 -64.6012,-25.56891 -7.5923,-2.1414 -24.731,-5.85844 -25.9256,-6.20934 -0.018,-0.005 0,-0.24745 -0.01,-0.70804 -0.016,-1.63219 0.01,-5.87043 0.01,-10.81196 0,-9.89895 -0.01,-11.23068 0,-11.645 0,-0.16769 13.8824,2.7882 20.6372,4.46114 28.0959,6.95841 59.845,18.96094 81.1502,30.67825 4.307,2.36874 22.7074,13.79168 33.7331,20.94153 39.4726,25.59668 64.6772,47.75997 99.3773,87.38582 15.8356,18.08352 25.9577,31.00537 49.625,63.35092 43.7024,59.72713 46.0165,62.83175 58.3176,78.24 14.6416,18.33984 22.799,26.90609 37.4801,39.35893 3.168,2.68715 7.488,6.42603 9.6,8.30862 5.1222,4.56578 8.8505,7.3454 14.1533,10.55202 8.8811,5.37038 27.8651,14.5834 32.5667,15.80476 9.057,2.35279 21.3236,3.85364 37.12,4.54174 19.7441,0.86007 35.8495,-1.75187 48.3604,-7.843 2.9342,-1.42855 4.8758,-2.75885 11.04,-7.56419 27.517,-21.45101 40.8047,-34.03523 53.5096,-50.67679 9.372,-12.27597 21.4917,-29.96598 33.8734,-49.44209 10.2827,-16.17453 16.104,-25.93887 29.3794,-49.28 18.0931,-31.81147 36.8622,-61.15416 49.3345,-77.12707 1.44,-1.84411 4.9184,-6.37693 7.7298,-10.07293 13.5279,-17.78406 22.6901,-28.39198 34.9819,-40.50168 16.8054,-16.55642 33.8597,-29.65193 53.9652,-41.4384 5.9102,-3.46475 25.0115,-13.11702 33.8258,-17.09288 26.971,-12.16574 55.0929,-21.89517 84.0359,-29.07421 25.7978,-6.39893 32.4455,-7.85762 47.6441,-10.45457 23.6976,-4.04913 45.2181,-6.54186 68.96,-7.98768 12.0942,-0.7365 27.2285,-1.08832 51.36,-1.19394 l 22.08,-0.0966 1.8209,0.89418 c 2.3441,1.15114 4.7998,3.81544 5.6766,6.15889 0.8938,2.38889 0.896,5.89886 0.01,8.27945 -1.2165,3.2514 -4.5465,6.10153 -8.0447,6.88551 -0.8882,0.19905 -12.6619,0.45807 -29.5867,0.65091 -33.416,0.38075 -44.8003,0.90707 -66.3514,3.06754 -24.3878,2.44486 -51.265,6.82184 -69.6,11.33445 -3.52,0.86635 -11.08,2.7282 -16.8,4.13746 -35.9806,8.8647 -67.0533,20.32465 -99.52,36.70403 -10.7953,5.44623 -17.3837,9.23757 -26.08,15.00797 -13.8401,9.18357 -25.149,18.40168 -37.3919,30.47891 -11.9978,11.8355 -19.7371,20.81833 -33.5712,38.96548 -2.9498,3.86937 -6.7458,8.83522 -8.4357,11.03522 -12.8152,16.68353 -30.1824,44.26066 -50.7041,80.51216 -20.3242,35.90258 -47.2632,77.11429 -64.405,98.52784 -9.5422,11.92 -23.072,25.1104 -39.5762,38.5833 -7.9576,6.49598 -21.3987,16.86809 -23.7937,18.3608 -9.3868,5.85055 -23.6837,10.32008 -38.9324,12.17114 -4.2099,0.51104 -15.3362,1.16003 -18.0698,1.054 -0.88,-0.0341 -2.968,-0.0992 -4.64,-0.14457 z m -40.224,-74.6179 c -4.8282,-1.67594 -7.5967,-5.66983 -7.5786,-10.93303 0.01,-1.90225 0.1831,-2.78819 0.843,-4.22978 1.1629,-2.53993 3.3418,-4.76343 5.7647,-5.88251 l 1.9949,-0.92145 23.3082,-0.09 23.3082,-0.09 -40.5882,-40.79639 c -45.9149,-46.15044 -42.834,-42.71199 -42.8212,-47.79131 0.01,-2.29299 0.1478,-3.05531 0.8513,-4.56831 2.7981,-6.01781 9.7958,-8.4962 15.6347,-5.53738 1.1686,0.59219 11.4317,10.69369 42.4442,41.77584 l 40.9028,40.99479 0.16,-23.63573 0.16,-23.63573 1.0431,-2.11844 c 1.214,-2.46551 2.9491,-4.15805 5.4785,-5.34405 1.5256,-0.71532 2.2354,-0.84325 4.6784,-0.84325 2.4525,0 3.1506,0.12684 4.7029,0.85446 1.0026,0.46995 2.4901,1.52165 3.3056,2.33712 0.8154,0.81546 1.8671,2.30296 2.3371,3.30554 l 0.8544,1.82288 0.048,36.32 c 0.026,19.976 -0.062,37.54684 -0.1972,39.0463 -0.4014,4.46134 -2.5107,7.61418 -6.3584,9.50368 l -1.8124,0.89002 -38.4,0.0722 c -36.2972,0.0682 -38.4911,0.0406 -40.064,-0.50543 z M 1523.2,608.29355 c -18.9883,-0.47585 -43.901,-1.47515 -59.52,-2.38746 -6.2548,-0.36534 -9.6916,-0.74198 -14.72,-1.61315 -30.2971,-5.24901 -64.2107,-14.08396 -95.6957,-24.93007 -14.8876,-5.12856 -26.0971,-9.63194 -40.6243,-16.32071 -50.5579,-23.27841 -78.4818,-34.62331 -125.28,-50.89863 -25.6964,-8.93664 -30.5711,-10.36733 -52.16,-15.30858 -43.6607,-9.99306 -75.5646,-13.90715 -124.48,-15.27169 -13.49299,-0.3764 -39.5604,-0.19954 -50.7135,0.34406 -3.66449,0.17861 -6.52023,0.17317 -7.50882,-0.0143 -3.56719,-0.67651 -6.57924,-3.01628 -8.12321,-6.31013 -0.73814,-1.57474 -0.85442,-2.2367 -0.85422,-4.86288 2.9e-4,-3.63609 0.59165,-5.20072 2.89728,-7.66562 2.05189,-2.19364 4.17309,-3.17437 7.63926,-3.53198 5.53029,-0.57058 31.95479,-1.04794 46.42321,-0.83865 59.7392,0.86417 99.2606,5.84055 154.0811,19.4013 13.4006,3.31486 16.5603,4.30925 43.6789,13.74638 42.5338,14.80149 75.0903,28.01933 119.84,48.65473 6.952,3.20576 14.8,6.72784 17.44,7.82683 33.7402,14.04555 79.7262,27.16158 118.24,33.72414 5.9037,1.00595 11.4682,1.37298 36.96,2.43779 26.4171,1.10346 35.7396,1.28103 67.36,1.28303 39.0486,0.002 45.15,-0.28203 60.64,-2.82753 4.6262,-0.76023 6.7918,-0.66018 6.7918,-0.66018 -0.394,3.32108 -3.3017,13.49225 -5.7845,20.14843 -0.8107,2.17337 -1.2026,3.09221 -1.5478,3.89463 -0.044,0.10265 -2.6524,0.15234 -6.1795,0.55341 -12.0128,1.36602 -24.9321,1.77551 -54.24,1.71914 -13.64,-0.0262 -29.192,-0.15777 -34.56,-0.2923 z m 165.4205,-13.30605 c 0.017,-0.0733 0.4065,-1.68277 1.1039,-5.1714 0.6975,-3.48865 1.6109,-8.61286 1.9904,-11.43173 l 0.7028,-5.10828 2.9562,-0.22287 c 21.4118,-1.61429 43.2971,-2.80121 61.0262,-2.80926 l 8.72,-0.004 v 11.30954 11.30954 l -14.8,0.20319 c -20.2219,0.27761 -42.4431,1.46453 -57.8984,3.09257 -3.4065,0.35883 -4.1693,0.37623 -4.1253,0.19204 z"
       id="path2"
       sodipodi:nodetypes="ssssssssssssssssssssssssssssssssssssssscsscssssssssssssssssssscsscccscssscccsssssscccscsssssssssssssssssssssssscssssssssssscsscccssss" /></g></svg>
