<?xml version="1.0" encoding="UTF-8" standalone="no"?>
<!-- License: CC Attribution. Made by Anton Kalashnyk: https://dribbble.com/antonkalashnyk -->

<svg
   width="733.3125"
   height="733.31665"
   viewBox="0 0 43.99875 43.998999"
   enable-background="new 0 0 48 48"
   id="_x3C_Layer_x3E_"
   version="1.1"
   xml:space="preserve"
   sodipodi:docname="magnifying_glass.svg"
   xmlns:inkscape="http://www.inkscape.org/namespaces/inkscape"
   xmlns:sodipodi="http://sodipodi.sourceforge.net/DTD/sodipodi-0.dtd"
   xmlns="http://www.w3.org/2000/svg"
   xmlns:svg="http://www.w3.org/2000/svg"><defs
   id="defs7" /><sodipodi:namedview
   id="namedview7"
   pagecolor="#ffffff"
   bordercolor="#000000"
   borderopacity="0.25"
   inkscape:showpageshadow="2"
   inkscape:pageopacity="0.0"
   inkscape:pagecheckerboard="0"
   inkscape:deskcolor="#d1d1d1"><inkscape:page
     x="0"
     y="0"
     width="43.998749"
     height="43.999001"
     id="page2"
     margin="0"
     bleed="0" /></sodipodi:namedview>

<g
   id="analysis_x2C__analytics_x2C__magnifier"
   transform="translate(-1.9999999,-1.9999999)">

<g
   id="g3">

<g
   id="g1">

<rect
   fill="#B3E5FC"
   height="6"
   id="XMLID_7_"
   transform="matrix(0.707,-0.7072,0.7072,0.707,-13.014,31.4223)"
   width="4"
   x="29.417999"
   y="28.417999"
   style="fill:#fcb3b3;fill-opacity:1" />

<path
   d="m 32.126,35.661 -4.95,-4.95 3.535,-3.536 4.95,4.95 z m -3.536,-4.95 3.536,3.536 2.121,-2.122 -3.536,-3.536 z"
   fill="#0277BD"
   id="path1"
   style="fill:#300000;fill-opacity:1" />

</g>

<g
   id="g2">

<path
   d="m 45.207,42.379 -2.828,2.828 c -0.391,0.391 -1.023,0.391 -1.414,0 l -9.899,-9.899 c -0.391,-0.391 -0.391,-1.023 0,-1.414 l 2.828,-2.829 c 0.391,-0.39 1.023,-0.39 1.414,0 l 9.899,9.9 c 0.391,0.39 0.391,1.023 0,1.414 z"
   fill="#8C9EFF"
   id="XMLID_6_"
   style="fill:#ff8c8c;fill-opacity:1" />

<path
   d="m 41.672,45.999 c -0.384,0 -0.769,-0.146 -1.061,-0.438 l -9.899,-9.899 c -0.585,-0.585 -0.585,-1.536 0,-2.121 l 2.828,-2.829 c 0.584,-0.584 1.535,-0.583 2.121,0 l 9.899,9.9 c 0.585,0.585 0.585,1.537 0,2.122 l -2.828,2.828 c -0.292,0.291 -0.676,0.437 -1.06,0.437 z M 34.601,31.272 c -0.128,0 -0.256,0.049 -0.354,0.146 l -2.828,2.829 c -0.195,0.195 -0.195,0.512 0,0.707 l 9.899,9.899 c 0.195,0.195 0.512,0.195 0.707,0 l 2.828,-2.828 c 0.195,-0.195 0.195,-0.512 0,-0.708 l -9.899,-9.9 c -0.098,-0.096 -0.225,-0.145 -0.353,-0.145 z"
   fill="#0277BD"
   id="path2"
   style="fill:#300000;fill-opacity:1" />

</g>

<path
   d="m 43.602,41.273 c -0.128,0 -0.256,-0.049 -0.354,-0.146 L 35.47,33.349 c -0.195,-0.195 -0.195,-0.512 0,-0.707 0.195,-0.195 0.512,-0.195 0.707,0 l 7.778,7.778 c 0.195,0.195 0.195,0.512 0,0.707 -0.098,0.097 -0.226,0.146 -0.353,0.146 z"
   fill="#E8EAF6"
   id="path3"
   style="fill:#f6e8e8;fill-opacity:1" />

</g>

<g
   id="g7">

<circle
   cx="18.5"
   cy="18.5"
   fill="#E1F5FE"
   id="XMLID_1_"
   r="16"
   style="fill:#fee1e1;fill-opacity:1" />

<path
   d="M 18.5,35 C 9.402,35 2,27.598 2,18.5 2,9.402 9.402,2 18.5,2 27.598,2 35,9.402 35,18.5 c 0,3.703 -1.198,7.202 -3.466,10.119 -0.171,0.218 -0.485,0.256 -0.701,0.087 C 30.615,28.537 30.575,28.223 30.745,28.005 32.874,25.266 34,21.979 34,18.5 34,9.953 27.047,3 18.5,3 9.953,3 3,9.953 3,18.5 3,27.047 9.953,34 18.5,34 c 4.027,0 7.844,-1.538 10.745,-4.33 0.198,-0.19 0.515,-0.186 0.707,0.014 0.191,0.199 0.186,0.516 -0.014,0.707 C 26.85,33.363 22.788,35 18.5,35 Z"
   fill="#0277BD"
   id="path4"
   style="fill:#300000;fill-opacity:1" />

<g
   id="g5">

<circle
   cx="18.5"
   cy="18.5"
   fill="#B3E5FC"
   id="XMLID_9_"
   r="13.5"
   style="fill:#fcb3b3;fill-opacity:1" />

<path
   d="m 18.5,32.5 c -7.72,0 -14,-6.28 -14,-14 0,-7.72 6.28,-14 14,-14 7.72,0 14,6.28 14,14 0,7.72 -6.28,14 -14,14 z m 0,-27 c -7.168,0 -13,5.832 -13,13 0,7.168 5.832,13 13,13 7.168,0 13,-5.832 13,-13 0,-7.168 -5.832,-13 -13,-13 z"
   fill="#ffffff"
   id="path5" />

</g>

<path
   d="M 17.627,8.536 C 17.369,8.536 17.15,8.338 17.13,8.077 17.108,7.802 17.313,7.56 17.587,7.538 17.889,7.513 18.192,7.5 18.5,7.5 18.776,7.5 19,7.724 19,8 c 0,0.276 -0.224,0.5 -0.5,0.5 -0.28,0 -0.557,0.012 -0.831,0.034 -0.015,10e-4 -0.028,0.002 -0.042,0.002 z"
   fill="#ffffff"
   id="path6" />

<path
   d="M 8,19 C 7.724,19 7.5,18.776 7.5,18.5 7.5,13.855 10.438,9.689 14.813,8.133 15.074,8.039 15.36,8.176 15.452,8.437 15.545,8.697 15.409,8.983 15.149,9.076 11.172,10.49 8.5,14.277 8.5,18.5 8.5,18.776 8.276,19 8,19 Z"
   fill="#ffffff"
   id="path7" />

</g>

</g>

</svg>
